<svg width="127" height="35" viewBox="0 0 127 35" fill="none" xmlns="http://www.w3.org/2000/svg">
<path d="M32.3192 12.2882H26.8369C24.2448 12.2882 21.8047 13.5029 20.2361 15.5677L15.2817 22.0906C14.6019 21.6089 13.9892 21.0208 13.472 20.341L0.252116 2.92501C-0.360615 2.11732 0.212871 0.959589 1.22628 0.959589H19.6057C22.1978 0.959589 24.6417 2.17429 26.2103 4.23909L32.3192 12.2882Z" fill="#A230ED"/>
<path d="M46.1908 14.2536L32.9709 31.6702C31.4055 33.735 28.9622 34.9459 26.3663 34.9459H7.99073C6.97796 34.9459 6.40447 33.7913 7.0134 32.9843L15.2827 22.0912C16.6677 23.0755 18.3388 23.6173 20.0776 23.6173H38.4538C39.4666 23.6173 40.0439 22.4628 39.4312 21.6557L32.3196 12.2882H45.2173C46.2301 12.2882 46.8036 13.4465 46.1908 14.2536Z" fill="#6E47FF"/>
<path d="M38.4524 23.6173H20.0761C18.3373 23.6173 16.6656 23.0755 15.2812 22.0912L20.2356 15.5683C21.8042 13.5035 24.2443 12.2888 26.8364 12.2888H32.3187L39.4297 21.6557C40.0424 22.4628 39.4651 23.6173 38.4524 23.6173Z" fill="#6B00D7"/>
<path d="M66.3876 23.6174L63.6923 19.7536C63.579 19.7663 63.4094 19.7726 63.1834 19.7726H60.2052V23.6174H57.7549V10.4234H63.1834C64.3265 10.4234 65.3229 10.612 66.1704 10.9886C67.0186 11.3659 67.6687 11.9058 68.1213 12.6097C68.5733 13.3136 68.7992 14.1491 68.7992 15.1163C68.7992 16.1095 68.5574 16.9634 68.0738 17.6793C67.5896 18.3958 66.8958 18.9301 65.9913 19.2814L69.0258 23.6167H66.3876V23.6174ZM65.502 13.175C64.9488 12.7224 64.1386 12.4964 63.0707 12.4964H60.2058V17.7553H63.0707C64.1386 17.7553 64.9488 17.5261 65.502 17.0672C66.0552 16.6083 66.3312 15.9582 66.3312 15.1163C66.3312 14.2751 66.0546 13.6276 65.502 13.175Z" fill="white"/>
<path d="M81.9703 18.6415L76.1842 20.5638L74.884 23.6174H72.3584L78.2952 10.4234H80.7081L86.6639 23.6174H84.1003L81.9703 18.6415ZM81.9703 18.6415L79.4827 12.8737L77.014 18.6415H81.9703Z" fill="white"/>
<path d="M98.6421 10.9886C99.4903 11.3659 100.14 11.9058 100.593 12.6097C101.045 13.3136 101.271 14.1491 101.271 15.1164C101.271 16.0715 101.045 16.9039 100.593 17.6135C100.14 18.3237 99.4903 18.8668 98.6421 19.2441C97.7939 19.6207 96.7982 19.8093 95.6551 19.8093H92.6769V23.6167H90.2266V10.4234H95.6551C96.7982 10.4234 97.7945 10.612 98.6421 10.9886ZM97.9731 17.0577C98.5263 16.6051 98.8023 15.9582 98.8023 15.1164C98.8023 14.2745 98.5256 13.6276 97.9731 13.175C97.4198 12.7224 96.6096 12.4964 95.5417 12.4964H92.6769V17.7363H95.5417C96.6096 17.7369 97.4205 17.5103 97.9731 17.0577Z" fill="white"/>
<path d="M105.606 10.4234H108.057V23.6174H105.606V10.4234Z" fill="white"/>
<path d="M113.504 10.4234H119.271C120.678 10.4234 121.929 10.6968 123.022 11.2431C124.115 11.79 124.963 12.5623 125.567 13.5611C126.17 14.56 126.471 15.7133 126.471 17.0197C126.471 18.3269 126.169 19.4795 125.567 20.4784C124.963 21.4772 124.115 22.2501 123.022 22.7964C121.929 23.3433 120.678 23.6161 119.271 23.6161H113.504V10.4234ZM119.158 21.5437C120.126 21.5437 120.977 21.3589 121.712 20.9879C122.447 20.6176 123.013 20.0897 123.409 19.4048C123.804 18.7199 124.003 17.9255 124.003 17.0204C124.003 16.1158 123.804 15.3214 123.409 14.6359C123.013 13.951 122.447 13.4237 121.712 13.0528C120.977 12.6825 120.126 12.4964 119.158 12.4964H115.954V21.5437H119.158Z" fill="white"/>
<path d="M57.7559 27.1466H58.3825V31.5344H57.7559V27.1466Z" fill="white"/>
<path d="M66.6062 27.1475V31.5354H66.0923L63.4597 28.2635V31.5354H62.833V27.1475H63.347L65.9796 30.4194V27.1475H66.6062Z" fill="white"/>
<path d="M74.8299 27.1475V31.5354H74.3159L71.6833 28.2635V31.5354H71.0566V27.1475H71.5706L74.2032 30.4194V27.1475H74.8299Z" fill="white"/>
<path d="M80.0635 31.2936C79.7084 31.0993 79.4292 30.8309 79.2267 30.4884C79.0241 30.146 78.9229 29.7637 78.9229 29.3415C78.9229 28.9193 79.0241 28.5369 79.2267 28.1945C79.4292 27.8521 79.7084 27.583 80.0635 27.3893C80.4186 27.195 80.818 27.0975 81.2605 27.0975C81.6991 27.0975 82.096 27.195 82.4511 27.3893C82.8062 27.5837 83.0841 27.8514 83.2848 28.192C83.4854 28.5325 83.5854 28.9161 83.5854 29.3421C83.5854 29.7681 83.4854 30.1517 83.2848 30.4922C83.0841 30.8328 82.8062 31.0999 82.4511 31.2942C82.096 31.4886 81.6991 31.586 81.2605 31.586C80.8174 31.5854 80.4186 31.4879 80.0635 31.2936ZM82.1289 30.8081C82.3859 30.6619 82.5885 30.46 82.7366 30.203C82.8847 29.946 82.9594 29.6586 82.9594 29.3415C82.9594 29.0243 82.8853 28.7363 82.7366 28.4793C82.5885 28.2223 82.3853 28.0211 82.1289 27.8742C81.8726 27.7274 81.5827 27.6546 81.2605 27.6546C80.9383 27.6546 80.6471 27.7274 80.3863 27.8742C80.1249 28.0204 79.9204 28.2223 79.7723 28.4793C79.6242 28.7363 79.5495 29.0237 79.5495 29.3415C79.5495 29.6592 79.6236 29.9466 79.7723 30.203C79.9204 30.46 80.1255 30.6619 80.3863 30.8081C80.6471 30.9543 80.9389 31.0277 81.2605 31.0277C81.582 31.0277 81.8719 30.9543 82.1289 30.8081Z" fill="white"/>
<path d="M91.3522 27.1475L89.4279 31.5354H88.8076L86.877 27.1475H87.5543L89.1336 30.7518L90.7255 27.1475H91.3522Z" fill="white"/>
<path d="M97.7021 30.4384H95.3702L94.8878 31.5354H94.2422L96.2291 27.1475H96.8495L98.8427 31.5354H98.1844L97.7021 30.4384ZM97.4824 29.9365L96.5361 27.7869L95.5898 29.9365H97.4824Z" fill="white"/>
<path d="M103.28 27.6925H101.775V27.1469H105.404V27.6925H103.9V31.5348H103.279V27.6925H103.28Z" fill="white"/>
<path d="M109.222 27.1475H109.848V31.5354H109.222V27.1475Z" fill="white"/>
<path d="M115.083 31.2936C114.728 31.0993 114.449 30.8309 114.246 30.4884C114.044 30.146 113.942 29.7637 113.942 29.3415C113.942 28.9193 114.044 28.5369 114.246 28.1945C114.449 27.8521 114.728 27.583 115.083 27.3893C115.438 27.195 115.837 27.0975 116.28 27.0975C116.719 27.0975 117.116 27.195 117.471 27.3893C117.826 27.5837 118.104 27.8514 118.305 28.192C118.506 28.5325 118.606 28.9161 118.606 29.3421C118.606 29.7681 118.506 30.1517 118.305 30.4922C118.104 30.8328 117.826 31.0999 117.471 31.2942C117.116 31.4886 116.719 31.586 116.28 31.586C115.837 31.5854 115.438 31.4879 115.083 31.2936ZM117.148 30.8081C117.405 30.6619 117.607 30.46 117.756 30.203C117.904 29.946 117.978 29.6586 117.978 29.3415C117.978 29.0243 117.904 28.7363 117.756 28.4793C117.607 28.2223 117.405 28.0211 117.148 27.8742C116.891 27.728 116.602 27.6546 116.279 27.6546C115.958 27.6546 115.666 27.7274 115.405 27.8742C115.144 28.0211 114.939 28.2223 114.791 28.4793C114.643 28.7363 114.569 29.0237 114.569 29.3415C114.569 29.6592 114.643 29.9466 114.791 30.203C114.939 30.46 115.144 30.6619 115.405 30.8081C115.667 30.9543 115.958 31.0277 116.279 31.0277C116.602 31.0271 116.891 30.9543 117.148 30.8081Z" fill="white"/>
<path d="M126.471 27.1475V31.5354H125.957L123.325 28.2635V31.5354H122.698V27.1475H123.212L125.845 30.4194V27.1475H126.471Z" fill="white"/>
</svg>
